<svg width="183" height="183" viewBox="0 0 183 183" fill="none" xmlns="http://www.w3.org/2000/svg">
<path d="M70.425 102.24H68.305V106H62.065V102.24H50.265V96L59.705 77.52H66.905L57.465 96H62.065V92.24H68.305V96H70.425V102.24ZM95.3316 96.28C95.3316 98.0667 95.1449 99.5067 94.7716 100.6C94.3982 101.693 93.7049 102.76 92.6916 103.8C91.0649 105.427 88.8649 106.24 86.0916 106.24C83.2382 106.24 80.9849 105.413 79.3316 103.76C78.6916 103.12 78.1849 102.4 77.8116 101.6C77.4382 100.8 77.1982 100.107 77.0916 99.52C77.0116 98.9333 76.9316 98.2 76.8516 97.32H83.4116C83.6249 99.32 84.5182 100.32 86.0916 100.32C86.8382 100.32 87.4516 100.08 87.9316 99.6C88.4916 99.04 88.7716 97.9333 88.7716 96.28C88.7716 94.7867 88.5449 93.7467 88.0916 93.16C87.6382 92.5467 86.9716 92.24 86.0916 92.24C85.6382 92.24 85.2382 92.3067 84.8916 92.44C84.5716 92.5733 84.3049 92.76 84.0916 93C83.9049 93.24 83.7716 93.4533 83.6916 93.64C83.6116 93.8 83.5182 94.0133 83.4116 94.28H77.3716V77.52H94.7316V83.44H83.3316V87.84C84.2916 87.0933 85.5716 86.72 87.1716 86.72C89.5182 86.72 91.3582 87.3867 92.6916 88.72C93.7582 89.7867 94.4649 90.92 94.8116 92.12C95.1582 93.32 95.3316 94.7067 95.3316 96.28ZM132.958 100.68C132.958 102.467 132.371 103.84 131.198 104.8C130.051 105.76 128.625 106.24 126.918 106.24C125.211 106.24 123.771 105.76 122.598 104.8C121.451 103.84 120.878 102.467 120.878 100.68V96.88C120.878 95.0933 121.451 93.72 122.598 92.76C123.771 91.8 125.211 91.32 126.918 91.32C128.625 91.32 130.051 91.8 131.198 92.76C132.371 93.72 132.958 95.0933 132.958 96.88V100.68ZM114.358 86.64C114.358 88.4267 113.771 89.8 112.598 90.76C111.451 91.72 110.025 92.2 108.318 92.2C106.611 92.2 105.171 91.72 103.998 90.76C102.851 89.8 102.278 88.4267 102.278 86.64V82.84C102.278 81.0533 102.851 79.68 103.998 78.72C105.171 77.76 106.611 77.28 108.318 77.28C110.025 77.28 111.451 77.76 112.598 78.72C113.771 79.68 114.358 81.0533 114.358 82.84V86.64ZM126.918 77.52L113.358 106H108.318L121.878 77.52H126.918ZM109.718 86.48V83C109.718 81.96 109.251 81.44 108.318 81.44C107.385 81.44 106.918 81.96 106.918 83V86.48C106.918 87.52 107.385 88.04 108.318 88.04C109.251 88.04 109.718 87.52 109.718 86.48ZM128.318 100.52V97.04C128.318 96 127.851 95.48 126.918 95.48C125.985 95.48 125.518 96 125.518 97.04V100.52C125.518 101.56 125.985 102.08 126.918 102.08C127.851 102.08 128.318 101.56 128.318 100.52Z" fill="#FCFCFC" fill-opacity="0.8"/>
<rect x="5" y="5" width="173" height="173" rx="86.5" stroke="#161616" stroke-width="10"/>
<path d="M0 91.5C1.91105e-06 69.6402 7.82607 48.5026 22.0616 31.9134C36.2972 15.3242 56.0015 4.37963 77.6079 1.06074C99.2143 -2.25815 121.295 2.26796 139.853 13.8198C158.411 25.3717 172.221 43.1859 178.782 64.0379L169.267 67.0317C163.421 48.4528 151.117 32.5805 134.582 22.288C118.047 11.9954 98.3734 7.96274 79.1223 10.9198C59.8713 13.8769 42.315 23.6284 29.6313 38.4091C16.9477 53.1899 9.97473 72.0232 9.97472 91.5H0Z" fill="url(#paint0_linear)"/>
<defs>
<linearGradient id="paint0_linear" x1="204" y1="-18" x2="-26" y2="195" gradientUnits="userSpaceOnUse">
<stop stop-color="#32F3FD"/>
<stop offset="1" stop-color="#0545FE"/>
</linearGradient>
</defs>
</svg>
