<svg width="183" height="183" viewBox="0 0 183 183" fill="none" xmlns="http://www.w3.org/2000/svg">
<path d="M69.905 97.48C69.905 100.307 68.9983 102.48 67.185 104C65.3983 105.493 63.1183 106.24 60.345 106.24C57.5717 106.24 55.2783 105.493 53.465 104C51.6783 102.48 50.785 100.307 50.785 97.48C50.785 96.3867 50.9983 95.3867 51.425 94.48C51.8783 93.5467 52.2783 92.9067 52.625 92.56C52.9717 92.2133 53.425 91.8133 53.985 91.36C52.0383 89.7333 51.065 87.8533 51.065 85.72C51.065 83.1333 51.9717 81.08 53.785 79.56C55.5983 78.04 57.785 77.28 60.345 77.28C62.905 77.28 65.0917 78.04 66.905 79.56C68.7183 81.08 69.625 83.1333 69.625 85.72C69.625 87.8533 68.6517 89.7333 66.705 91.36C67.265 91.8133 67.7183 92.2133 68.065 92.56C68.4117 92.9067 68.7983 93.5467 69.225 94.48C69.6783 95.3867 69.905 96.3867 69.905 97.48ZM62.465 99.44C63.0517 98.8533 63.345 98.1467 63.345 97.32C63.345 96.4933 63.0517 95.7867 62.465 95.2C61.8783 94.6133 61.1717 94.32 60.345 94.32C59.5183 94.32 58.8117 94.6133 58.225 95.2C57.6383 95.7867 57.345 96.4933 57.345 97.32C57.345 98.1467 57.6383 98.8533 58.225 99.44C58.8117 100.027 59.5183 100.32 60.345 100.32C61.1717 100.32 61.8783 100.027 62.465 99.44ZM62.265 87.84C62.7983 87.3067 63.065 86.6667 63.065 85.92C63.065 85.1733 62.7983 84.5333 62.265 84C61.7317 83.4667 61.0917 83.2 60.345 83.2C59.5983 83.2 58.9583 83.4667 58.425 84C57.8917 84.5333 57.625 85.1733 57.625 85.92C57.625 86.6667 57.8917 87.3067 58.425 87.84C58.9583 88.3733 59.5983 88.64 60.345 88.64C61.0917 88.64 61.7317 88.3733 62.265 87.84ZM95.3316 96.28C95.3316 98.0667 95.1449 99.5067 94.7716 100.6C94.3982 101.693 93.7049 102.76 92.6916 103.8C91.0649 105.427 88.8649 106.24 86.0916 106.24C83.2382 106.24 80.9849 105.413 79.3316 103.76C78.6916 103.12 78.1849 102.4 77.8116 101.6C77.4382 100.8 77.1982 100.107 77.0916 99.52C77.0116 98.9333 76.9316 98.2 76.8516 97.32H83.4116C83.6249 99.32 84.5182 100.32 86.0916 100.32C86.8382 100.32 87.4516 100.08 87.9316 99.6C88.4916 99.04 88.7716 97.9333 88.7716 96.28C88.7716 94.7867 88.5449 93.7467 88.0916 93.16C87.6382 92.5467 86.9716 92.24 86.0916 92.24C85.6382 92.24 85.2382 92.3067 84.8916 92.44C84.5716 92.5733 84.3049 92.76 84.0916 93C83.9049 93.24 83.7716 93.4533 83.6916 93.64C83.6116 93.8 83.5182 94.0133 83.4116 94.28H77.3716V77.52H94.7316V83.44H83.3316V87.84C84.2916 87.0933 85.5716 86.72 87.1716 86.72C89.5182 86.72 91.3582 87.3867 92.6916 88.72C93.7582 89.7867 94.4649 90.92 94.8116 92.12C95.1582 93.32 95.3316 94.7067 95.3316 96.28ZM132.958 100.68C132.958 102.467 132.371 103.84 131.198 104.8C130.051 105.76 128.625 106.24 126.918 106.24C125.211 106.24 123.771 105.76 122.598 104.8C121.451 103.84 120.878 102.467 120.878 100.68V96.88C120.878 95.0933 121.451 93.72 122.598 92.76C123.771 91.8 125.211 91.32 126.918 91.32C128.625 91.32 130.051 91.8 131.198 92.76C132.371 93.72 132.958 95.0933 132.958 96.88V100.68ZM114.358 86.64C114.358 88.4267 113.771 89.8 112.598 90.76C111.451 91.72 110.025 92.2 108.318 92.2C106.611 92.2 105.171 91.72 103.998 90.76C102.851 89.8 102.278 88.4267 102.278 86.64V82.84C102.278 81.0533 102.851 79.68 103.998 78.72C105.171 77.76 106.611 77.28 108.318 77.28C110.025 77.28 111.451 77.76 112.598 78.72C113.771 79.68 114.358 81.0533 114.358 82.84V86.64ZM126.918 77.52L113.358 106H108.318L121.878 77.52H126.918ZM109.718 86.48V83C109.718 81.96 109.251 81.44 108.318 81.44C107.385 81.44 106.918 81.96 106.918 83V86.48C106.918 87.52 107.385 88.04 108.318 88.04C109.251 88.04 109.718 87.52 109.718 86.48ZM128.318 100.52V97.04C128.318 96 127.851 95.48 126.918 95.48C125.985 95.48 125.518 96 125.518 97.04V100.52C125.518 101.56 125.985 102.08 126.918 102.08C127.851 102.08 128.318 101.56 128.318 100.52Z" fill="#FCFCFC" fill-opacity="0.8"/>
<rect x="5" y="5" width="173" height="173" rx="86.5" stroke="#161616" stroke-width="10"/>
<path d="M0 91.5C1.79636e-06 70.9521 6.91633 51.0022 19.635 34.8637C32.3537 18.7251 50.1343 7.33737 70.1131 2.53456C90.0918 -2.26825 111.106 -0.206516 129.77 8.38768C148.434 16.9819 163.663 31.6083 173.002 49.911C182.342 68.2137 185.249 89.1274 181.255 109.284C177.262 129.44 166.6 147.665 150.987 161.024C135.374 174.383 115.719 182.097 95.1882 182.926C74.657 183.754 54.4445 177.647 37.8065 165.589L43.6598 157.513C58.4841 168.256 76.4931 173.697 94.7861 172.959C113.079 172.221 130.591 165.347 144.502 153.445C158.413 141.542 167.912 125.304 171.471 107.345C175.029 89.386 172.439 70.7523 164.117 54.4448C155.796 38.1373 142.228 25.1054 125.598 17.448C108.968 9.79072 90.2453 7.95374 72.4445 12.233C54.6437 16.5122 38.8014 26.6586 27.4693 41.0378C16.1371 55.417 9.97473 73.1921 9.97472 91.5H0Z" fill="url(#paint0_linear)"/>
<defs>
<linearGradient id="paint0_linear" x1="204" y1="-18" x2="-26" y2="195" gradientUnits="userSpaceOnUse">
<stop stop-color="#32F3FD"/>
<stop offset="1" stop-color="#0545FE"/>
</linearGradient>
</defs>
</svg>
