<svg width="183" height="183" viewBox="0 0 183 183" fill="none" xmlns="http://www.w3.org/2000/svg">
<path d="M69.945 86.44C69.945 87.5867 69.7583 88.7067 69.385 89.8C69.0117 90.8667 68.3717 92.3333 67.465 94.2L61.745 106H54.545L60.185 94.84C59.8117 94.9733 59.2783 95.04 58.585 95.04C56.665 95.04 54.9183 94.2667 53.345 92.72C51.7717 91.1733 50.985 89.08 50.985 86.44C50.985 83.5333 51.8917 81.28 53.705 79.68C55.5183 78.08 57.7717 77.28 60.465 77.28C63.1583 77.28 65.4117 78.08 67.225 79.68C69.0383 81.28 69.945 83.5333 69.945 86.44ZM62.545 88.84C63.105 88.2533 63.385 87.4533 63.385 86.44C63.385 85.4267 63.105 84.64 62.545 84.08C61.985 83.4933 61.2917 83.2 60.465 83.2C59.6383 83.2 58.945 83.4933 58.385 84.08C57.825 84.64 57.545 85.4267 57.545 86.44C57.545 87.4533 57.825 88.2533 58.385 88.84C58.945 89.4 59.6383 89.68 60.465 89.68C61.2917 89.68 61.985 89.4 62.545 88.84ZM95.1316 97.36C95.1316 100.16 94.2382 102.347 92.4516 103.92C90.6649 105.467 88.5049 106.24 85.9716 106.24C83.4382 106.24 81.2782 105.467 79.4916 103.92C77.7049 102.347 76.8116 100.16 76.8116 97.36V86.16C76.8116 83.36 77.7049 81.1867 79.4916 79.64C81.2782 78.0667 83.4382 77.28 85.9716 77.28C88.5049 77.28 90.6649 78.0667 92.4516 79.64C94.2382 81.1867 95.1316 83.36 95.1316 86.16V97.36ZM88.5716 97.4V86.16C88.5716 85.2 88.3182 84.4667 87.8116 83.96C87.3316 83.4533 86.7182 83.2 85.9716 83.2C85.2249 83.2 84.5982 83.4533 84.0916 83.96C83.6116 84.4667 83.3716 85.2 83.3716 86.16V97.4C83.3716 98.36 83.6116 99.0933 84.0916 99.6C84.5982 100.08 85.2249 100.32 85.9716 100.32C86.7182 100.32 87.3316 100.08 87.8116 99.6C88.3182 99.0933 88.5716 98.36 88.5716 97.4ZM132.958 100.68C132.958 102.467 132.371 103.84 131.198 104.8C130.051 105.76 128.625 106.24 126.918 106.24C125.211 106.24 123.771 105.76 122.598 104.8C121.451 103.84 120.878 102.467 120.878 100.68V96.88C120.878 95.0933 121.451 93.72 122.598 92.76C123.771 91.8 125.211 91.32 126.918 91.32C128.625 91.32 130.051 91.8 131.198 92.76C132.371 93.72 132.958 95.0933 132.958 96.88V100.68ZM114.358 86.64C114.358 88.4267 113.771 89.8 112.598 90.76C111.451 91.72 110.025 92.2 108.318 92.2C106.611 92.2 105.171 91.72 103.998 90.76C102.851 89.8 102.278 88.4267 102.278 86.64V82.84C102.278 81.0533 102.851 79.68 103.998 78.72C105.171 77.76 106.611 77.28 108.318 77.28C110.025 77.28 111.451 77.76 112.598 78.72C113.771 79.68 114.358 81.0533 114.358 82.84V86.64ZM126.918 77.52L113.358 106H108.318L121.878 77.52H126.918ZM109.718 86.48V83C109.718 81.96 109.251 81.44 108.318 81.44C107.385 81.44 106.918 81.96 106.918 83V86.48C106.918 87.52 107.385 88.04 108.318 88.04C109.251 88.04 109.718 87.52 109.718 86.48ZM128.318 100.52V97.04C128.318 96 127.851 95.48 126.918 95.48C125.985 95.48 125.518 96 125.518 97.04V100.52C125.518 101.56 125.985 102.08 126.918 102.08C127.851 102.08 128.318 101.56 128.318 100.52Z" fill="#FCFCFC" fill-opacity="0.8"/>
<path d="M91.5 178C43.7274 178 5 139.273 5 91.5C5 43.7274 43.7274 5 91.5 5C139.273 5 178 43.7274 178 91.5C178 139.273 139.273 178 91.5 178Z" stroke="#161616" stroke-width="10"/>
<path d="M0 91.5C1.91082e-06 69.6427 7.82422 48.5075 22.0567 31.9191C36.2892 15.3307 55.9897 4.38507 77.5931 1.06302C99.1964 -2.25903 121.275 2.26199 139.834 13.8079C158.393 25.3538 172.206 43.1618 178.773 64.0093C185.34 84.8567 184.227 107.366 175.636 127.464C167.045 147.562 151.543 163.921 131.936 173.58C112.329 183.24 89.9115 185.561 68.7412 180.124C47.5709 174.688 29.046 161.853 16.5189 143.941L24.6929 138.225C35.8543 154.183 52.3597 165.619 71.2222 170.463C90.0847 175.307 110.058 173.239 127.528 164.633C144.997 156.026 158.809 141.451 166.464 123.544C174.118 105.637 175.11 85.5809 169.259 67.0061C163.408 48.4313 151.101 32.5646 134.565 22.2774C118.029 11.9901 98.3574 7.96196 79.1091 10.9219C59.8608 13.8818 42.308 23.6342 29.627 38.4142C16.946 53.1943 9.97473 72.0255 9.97472 91.5H0Z" fill="url(#paint0_linear)"/>
<defs>
<linearGradient id="paint0_linear" x1="204" y1="-18" x2="-26" y2="195" gradientUnits="userSpaceOnUse">
<stop stop-color="#32F3FD"/>
<stop offset="1" stop-color="#0545FE"/>
</linearGradient>
</defs>
</svg>
