<svg width="183" height="183" viewBox="0 0 183 183" fill="none" xmlns="http://www.w3.org/2000/svg">
<path d="M69.945 86.44C69.945 87.5867 69.7583 88.7067 69.385 89.8C69.0117 90.8667 68.3717 92.3333 67.465 94.2L61.745 106H54.545L60.185 94.84C59.8117 94.9733 59.2783 95.04 58.585 95.04C56.665 95.04 54.9183 94.2667 53.345 92.72C51.7717 91.1733 50.985 89.08 50.985 86.44C50.985 83.5333 51.8917 81.28 53.705 79.68C55.5183 78.08 57.7717 77.28 60.465 77.28C63.1583 77.28 65.4117 78.08 67.225 79.68C69.0383 81.28 69.945 83.5333 69.945 86.44ZM62.545 88.84C63.105 88.2533 63.385 87.4533 63.385 86.44C63.385 85.4267 63.105 84.64 62.545 84.08C61.985 83.4933 61.2917 83.2 60.465 83.2C59.6383 83.2 58.945 83.4933 58.385 84.08C57.825 84.64 57.545 85.4267 57.545 86.44C57.545 87.4533 57.825 88.2533 58.385 88.84C58.945 89.4 59.6383 89.68 60.465 89.68C61.2917 89.68 61.985 89.4 62.545 88.84ZM95.3316 96.28C95.3316 98.0667 95.1449 99.5067 94.7716 100.6C94.3982 101.693 93.7049 102.76 92.6916 103.8C91.0649 105.427 88.8649 106.24 86.0916 106.24C83.2382 106.24 80.9849 105.413 79.3316 103.76C78.6916 103.12 78.1849 102.4 77.8116 101.6C77.4382 100.8 77.1982 100.107 77.0916 99.52C77.0116 98.9333 76.9316 98.2 76.8516 97.32H83.4116C83.6249 99.32 84.5182 100.32 86.0916 100.32C86.8382 100.32 87.4516 100.08 87.9316 99.6C88.4916 99.04 88.7716 97.9333 88.7716 96.28C88.7716 94.7867 88.5449 93.7467 88.0916 93.16C87.6382 92.5467 86.9716 92.24 86.0916 92.24C85.6382 92.24 85.2382 92.3067 84.8916 92.44C84.5716 92.5733 84.3049 92.76 84.0916 93C83.9049 93.24 83.7716 93.4533 83.6916 93.64C83.6116 93.8 83.5182 94.0133 83.4116 94.28H77.3716V77.52H94.7316V83.44H83.3316V87.84C84.2916 87.0933 85.5716 86.72 87.1716 86.72C89.5182 86.72 91.3582 87.3867 92.6916 88.72C93.7582 89.7867 94.4649 90.92 94.8116 92.12C95.1582 93.32 95.3316 94.7067 95.3316 96.28ZM132.958 100.68C132.958 102.467 132.371 103.84 131.198 104.8C130.051 105.76 128.625 106.24 126.918 106.24C125.211 106.24 123.771 105.76 122.598 104.8C121.451 103.84 120.878 102.467 120.878 100.68V96.88C120.878 95.0933 121.451 93.72 122.598 92.76C123.771 91.8 125.211 91.32 126.918 91.32C128.625 91.32 130.051 91.8 131.198 92.76C132.371 93.72 132.958 95.0933 132.958 96.88V100.68ZM114.358 86.64C114.358 88.4267 113.771 89.8 112.598 90.76C111.451 91.72 110.025 92.2 108.318 92.2C106.611 92.2 105.171 91.72 103.998 90.76C102.851 89.8 102.278 88.4267 102.278 86.64V82.84C102.278 81.0533 102.851 79.68 103.998 78.72C105.171 77.76 106.611 77.28 108.318 77.28C110.025 77.28 111.451 77.76 112.598 78.72C113.771 79.68 114.358 81.0533 114.358 82.84V86.64ZM126.918 77.52L113.358 106H108.318L121.878 77.52H126.918ZM109.718 86.48V83C109.718 81.96 109.251 81.44 108.318 81.44C107.385 81.44 106.918 81.96 106.918 83V86.48C106.918 87.52 107.385 88.04 108.318 88.04C109.251 88.04 109.718 87.52 109.718 86.48ZM128.318 100.52V97.04C128.318 96 127.851 95.48 126.918 95.48C125.985 95.48 125.518 96 125.518 97.04V100.52C125.518 101.56 125.985 102.08 126.918 102.08C127.851 102.08 128.318 101.56 128.318 100.52Z" fill="#FCFCFC" fill-opacity="0.8"/>
<rect x="5" y="5" width="173" height="173" rx="86.5" stroke="#161616" stroke-width="10"/>
<path d="M0 91.5C2.01952e-06 68.3993 8.73773 46.1536 24.4593 29.2281C40.1809 12.3026 61.7226 1.95004 84.7605 0.248539C107.798 -1.45296 130.627 5.62251 148.665 20.0547C166.702 34.4869 178.613 55.2076 182.007 78.0576C185.401 100.908 180.026 124.196 166.962 143.247C153.897 162.299 134.11 175.704 111.572 180.771C89.0343 185.839 65.4136 182.194 45.4516 170.568C25.4895 158.943 10.6635 140.197 3.94969 118.093L13.4938 115.194C19.4758 134.888 32.6855 151.59 50.4715 161.949C68.2574 172.307 89.3031 175.555 109.384 171.039C129.465 166.524 147.095 154.581 158.735 137.606C170.376 120.631 175.164 99.8821 172.141 79.523C169.117 59.1639 158.504 40.7021 142.433 27.8432C126.362 14.9843 106.022 8.68016 85.4952 10.1962C64.9687 11.7122 45.7753 20.9361 31.7676 36.0165C17.7599 51.097 9.97473 70.9176 9.97472 91.5H0Z" fill="url(#paint0_linear)"/>
<defs>
<linearGradient id="paint0_linear" x1="204" y1="-18" x2="-26" y2="195" gradientUnits="userSpaceOnUse">
<stop stop-color="#32F3FD"/>
<stop offset="1" stop-color="#0545FE"/>
</linearGradient>
</defs>
</svg>
